<svg width="199" height="314" viewBox="0 0 199 314" fill="none" xmlns="http://www.w3.org/2000/svg">
<g clip-path="url(#clip0_2_252)">
<path d="M170.149 98.3844C179.71 98.3844 187.461 90.3766 187.461 80.4985C187.461 70.6204 179.71 62.6126 170.149 62.6126C160.588 62.6126 152.837 70.6204 152.837 80.4985C152.837 90.3766 160.588 98.3844 170.149 98.3844Z" fill="#FF6884"/>
<path d="M98.5196 323.557C98.4546 324.415 98.4574 325.212 98.5437 325.992L140.148 324.272C140.496 323.475 140.787 322.651 141.035 321.8C145.537 306.49 136.198 281.703 145.363 243.999C152.168 216.022 166.03 193.785 172.493 183.426C180.435 170.685 189.535 158.854 199.884 140.126C202.127 136.075 204.427 131.688 206.796 126.906C207.591 125.307 216.74 106.76 215.821 106.232C215.39 105.989 212.926 109.76 212.091 111.027C204.721 122.236 200.379 127.186 194.194 135.286C190.44 140.198 186.015 146.253 179.835 155.571C163.987 179.442 156.07 191.369 153.491 200.162C152.81 202.51 149.19 215.217 142.056 231.086C138.412 239.182 136.59 243.231 135.498 242.957C132.408 242.171 135.256 209.152 146.933 175.782C148.931 170.102 150.446 166.458 153.323 159.567C157.997 148.325 184.027 85.8389 203.486 48.2759C205.927 43.5493 208.272 39.2326 210.442 35.4454C210.863 34.7319 211.271 34.0335 211.666 33.3647C214.407 28.7562 216.848 25.1027 218.904 22.7267C219.992 21.4637 222.745 17.8988 228.265 10.7395C230.456 7.89375 232.059 5.78299 233.136 4.24487C233.296 4.02081 233.441 3.79724 233.56 3.60382C234.862 1.69401 235.219 0.780115 234.879 0.315741C234.39 -0.34563 232.625 0.118823 230.705 0.908693C230.498 0.989753 230.277 1.08588 230.07 1.18142C227.985 2.07959 225.882 3.2251 225.182 3.61657C218.75 7.14499 212.572 13.244 206.913 20.4237C204.812 23.077 202.801 25.8717 200.862 28.736C194.624 37.9841 189.257 47.9938 185.224 56.2083C180.282 66.3308 177.369 73.745 177.369 73.745C163.815 108.28 148.824 147.761 147.942 147.464C146.975 147.141 163.392 98.0891 167.701 71.6359C169.141 62.7746 169.219 56.4491 166.832 55.3298C166.746 55.2898 166.66 55.2498 166.561 55.2249C166.191 55.1096 165.856 55.138 165.674 55.16C165.674 55.16 163.491 54.9602 161.226 55.5614C158.406 56.3159 155.486 64.6294 152.778 76.2403C145.726 106.171 139.926 157.946 139.926 157.946C134.128 209.735 123.913 251.875 121.093 251.528C119.527 251.331 121.255 238.311 118.346 216.84C116.304 201.785 114.668 202.317 108.313 175.203C98.2267 132.19 93.1838 110.691 93.1793 110.575C93.1861 109.662 93.2269 107.818 92.8867 105.918C92.5263 103.86 91.7276 101.718 89.9844 100.557C87.3331 98.7816 83.2167 99.7637 81.5766 100.904C80.265 101.829 79.64 103.45 79.5744 105.743C79.2067 120.172 100.833 161.069 109.939 217.187C114.474 245.145 116.959 260.399 112.405 280.888C107.9 301.201 99.1889 314.379 98.5196 323.557Z" fill="#F2F2F2"/>
<path d="M65.4824 200.902C65.4824 200.902 65.159 267.59 41.0819 256.378C28.5611 250.548 10.0807 225.965 10.0807 225.965L17.716 218.413L38.5602 236.414L42.4861 200.614L65.4824 200.902Z" fill="#FFB6B6"/>
<path d="M75.6102 163.82C75.6102 163.82 59.6587 159.155 51.0457 171.969C42.4328 184.783 38.0361 232.452 38.0361 232.452L60.8029 244.213L75.6102 163.82Z" fill="#E6E6E6"/>
<path d="M91.5271 88.5471C86.5947 90.2144 80.7829 79.3396 78.3736 83.7711C75.9644 88.2026 76.9805 107.899 78.3361 112.81C79.01 115.252 80.1416 117.572 80.7948 120.018C81.4479 122.464 81.5772 125.171 80.3141 127.339C78.116 131.111 72.7112 131.884 69.5985 135C65.9732 138.629 66.2919 144.397 66.9157 149.463C67.4534 153.829 68.0637 158.247 69.7794 162.353C71.4952 166.46 74.4569 170.283 78.6034 172.247C83.8828 174.747 90.085 173.885 95.7462 172.685C101.189 171.531 106.62 170.098 111.494 167.567C116.369 165.036 120.692 161.313 123.02 156.489C125.94 150.437 125.448 143.191 123.064 136.8C120.679 130.41 116.555 124.724 112.261 119.289C105.028 110.134 97.166 101.428 88.7463 93.2486" fill="#2F2E41"/>
<path d="M162.145 199.28L172.266 238.815L196.806 313.97L184.027 321.467L151.898 246.679L143.779 206.778L162.145 199.28Z" fill="#FFB6B6"/>
<path d="M113.366 142.93L84.6368 141.81L81.9265 152.451L58.6347 166.369L61.0569 252.977L133.152 259.697L143.539 200.754L146.161 167.292L115.806 153.851L113.366 142.93Z" fill="#E6E6E6"/>
<path d="M128.194 173.058C128.194 173.058 141.28 159.763 151.224 169.024C161.167 178.286 173.083 239.649 173.083 239.649L152.045 250.343L128.194 173.058Z" fill="#E6E6E6"/>
<path d="M129.357 181.293C129.357 181.293 117.432 180.733 107.675 183.533C97.9174 186.333 70.272 180.172 70.272 180.172C76.9342 203.608 72.5038 228.109 61.3279 253.257C46.5731 271.965 63.1462 307.466 37.748 326.341H143.539L139.657 278.178L133.694 260.257C133.694 260.257 136.946 256.897 135.862 255.777C134.778 254.657 121.226 200.334 129.357 181.293Z" fill="#30A2FF"/>
<path d="M77.8609 151.611L71.3561 185.773L80.5713 188.573L78.403 176.252L81.6554 149.931L77.8609 151.611Z" fill="#3F3D56"/>
<path d="M116.348 151.051L120.029 196.693L125.021 196.413L121.768 153.291L116.348 151.051Z" fill="#3F3D56"/>
<path d="M136.47 260.257C136.47 260.257 107.404 268.378 83.0106 265.578L60.4326 250.324L59.4307 252.977C59.4307 252.977 79.0112 278.337 93.614 276.858C108.217 275.378 138.03 266.418 138.03 264.177C138.03 261.937 136.47 260.257 136.47 260.257Z" fill="#3F3D56"/>
<path d="M16.0159 225.419C19.246 222.864 18.7575 216.6 14.9247 211.427C11.092 206.255 5.36629 204.132 2.13611 206.687C-1.09407 209.242 -0.60556 215.506 3.22723 220.679C7.06001 225.852 12.7857 227.974 16.0159 225.419Z" fill="#FFB6B6"/>
<path d="M199.247 334.823C203.511 332.663 204.34 325.376 201.099 318.548C197.859 311.72 191.775 307.936 187.511 310.096C183.247 312.256 182.417 319.543 185.658 326.371C188.899 333.199 194.983 336.983 199.247 334.823Z" fill="#FFB6B6"/>
<path d="M101.227 133.87C114.487 133.87 125.236 122.765 125.236 109.066C125.236 95.3665 114.487 84.2611 101.227 84.2611C87.9676 84.2611 77.2184 95.3665 77.2184 109.066C77.2184 122.765 87.9676 133.87 101.227 133.87Z" fill="#FFB6B6"/>
<path d="M107.689 132.805L107.404 124.45C107.404 124.45 92.9043 90.1016 82.5852 94.3381L77.551 103.787C77.551 103.787 73.4734 101.105 77.6306 95.1619C81.7878 89.2193 77.9836 90.9021 77.9836 90.9021C77.9836 90.9021 72.7556 87.3602 79.0086 84.43C85.2616 81.4998 89.3048 72.2153 101.754 82.9587C108.669 88.9262 116.4 98.5171 121.906 105.865C128.087 114.112 125.819 126.345 116.879 131.192C114.208 132.64 111.135 133.388 107.689 132.805Z" fill="#2F2E41"/>
<path d="M118.826 171.11C111.673 180.424 106.839 192.609 105.308 205.188C99.663 200.182 96.7515 191.129 96.7137 182.03C96.6759 172.93 99.2473 163.817 102.914 155.671C102.951 155.59 102.987 155.508 103.024 155.427C108.568 143.207 107.571 128.332 100.344 118.932C95.47 112.591 91.5721 105.01 88.9847 96.639C87.524 91.913 86.5619 86.1317 88.9201 81.6619C91.0931 77.5431 95.2426 76.1478 98.9799 75.3766C107.514 73.6157 116.338 73.2843 124.277 76.6535C132.216 80.0227 139.184 87.531 141.556 97.8424C143.927 108.154 140.819 121.154 133.356 127.239C135.219 128.416 136.197 131.404 135.597 134.092C134.997 136.781 132.879 138.905 130.739 138.964C132.103 139.131 132.535 141.582 131.792 143.144C131.049 144.707 129.643 145.517 128.321 146.163C126.439 147.082 124.364 148.026 123.857 151.181C123.654 152.446 123.807 153.733 124.211 154.857C125.192 157.583 127.235 159.081 129.206 160.496C124.41 161.462 119.974 166.102 118.209 171.998" fill="#2F2E41"/>
<path d="M134.397 265.936C137.606 270.108 137.63 276.285 141.895 279.714C143.663 281.135 146.204 281.891 148.375 281.065C150.529 280.245 151.747 278.184 151.991 275.893C152.251 273.455 151.272 271.138 149.862 269.236C148.34 267.182 146.383 265.237 144.264 263.849C142.302 262.563 139.914 261.889 137.644 262.664C135.356 263.446 134.003 265.361 133.944 267.845C133.903 269.579 134.14 271.344 134.263 273.072L134.638 278.335L135.408 289.138C135.484 290.21 137.111 290.219 137.034 289.138L135.83 272.241C135.735 270.906 135.587 269.56 135.569 268.221C135.554 267.137 135.73 266.07 136.492 265.274C137.828 263.88 139.938 263.759 141.644 264.369C143.759 265.127 145.504 266.845 147.047 268.46C148.548 270.031 150.021 271.924 150.347 274.177C150.607 275.97 150.111 278.127 148.534 279.136C146.804 280.243 144.502 279.651 142.964 278.458C140.952 276.895 139.898 274.31 139.023 271.958C138.083 269.429 137.196 266.892 135.546 264.748C134.896 263.901 133.752 265.097 134.397 265.936Z" fill="#3F3D56"/>
<path d="M134.01 264.188C132.555 266.079 131.683 268.274 130.859 270.514C130.06 272.683 129.256 274.973 127.757 276.748C126.454 278.291 124.492 279.431 122.449 279.114C120.479 278.807 119.301 277.003 119.166 275.043C119.016 272.868 120 270.886 121.316 269.25C122.74 267.481 124.477 265.736 126.399 264.557C128.074 263.528 130.109 263.021 131.948 263.916C132.747 264.304 133.43 264.94 133.745 265.806C134.178 266.995 133.961 268.371 133.874 269.604C133.423 275.929 132.973 282.253 132.522 288.578C132.445 289.657 134.072 289.652 134.148 288.578C134.602 282.207 135.056 275.836 135.51 269.465C135.609 268.067 135.767 266.586 135.274 265.243C134.895 264.211 134.201 263.373 133.306 262.777C131.41 261.513 128.998 261.528 126.962 262.395C124.639 263.384 122.678 265.257 120.974 267.123C119.304 268.953 117.858 271.127 117.573 273.682C117.328 275.869 117.998 278.28 119.721 279.673C121.596 281.189 124.13 281.074 126.207 280.082C131.81 277.406 131.705 269.867 135.159 265.376C135.804 264.538 134.661 263.341 134.01 264.188Z" fill="#3F3D56"/>
<path d="M36.9349 190.494C36.9349 190.494 24.6466 202.522 3.95065 190.494L7.1844 230.585C7.1844 230.585 7.47502 230.682 7.99558 230.833C8.37159 232.241 9.39965 233.397 10.7954 233.853C15.3001 235.324 23.9629 237.329 29.819 233.521C31.0406 232.726 31.7609 231.317 31.7609 229.826V229.71C32.2153 229.367 32.6517 228.997 33.0544 228.581L36.9349 190.494Z" fill="#3F3D56"/>
<path d="M20.4428 196.508C29.5511 196.508 36.9349 193.816 36.9349 190.494C36.9349 187.173 29.5511 184.481 20.4428 184.481C11.3344 184.481 3.95065 187.173 3.95065 190.494C3.95065 193.816 11.3344 196.508 20.4428 196.508Z" fill="#30A2FF"/>
<path d="M195.218 295.781C195.218 295.781 182.93 307.808 162.234 295.781L165.468 335.872C165.468 335.872 165.759 335.968 166.279 336.12C166.655 337.527 167.683 338.684 169.079 339.14C173.584 340.611 182.247 342.616 188.103 338.807C189.324 338.013 190.044 336.604 190.044 335.112V334.996C190.499 334.653 190.935 334.283 191.338 333.867L195.218 295.781Z" fill="#3F3D56"/>
<path d="M178.726 301.794C187.835 301.794 195.218 299.102 195.218 295.781C195.218 292.459 187.835 289.767 178.726 289.767C169.618 289.767 162.234 292.459 162.234 295.781C162.234 299.102 169.618 301.794 178.726 301.794Z" fill="#30A2FF"/>
</g>
<defs>
<clipPath id="clip0_2_252">
<rect width="235" height="341" fill="white"/>
</clipPath>
</defs>
</svg>
