<svg width="10" height="10" viewBox="0 0 10 10" fill="none" xmlns="http://www.w3.org/2000/svg">
<g clip-path="url(#clip0_10_137)">
<path d="M9.83258 3.88395H6.97544C6.92633 3.88395 6.88615 3.92413 6.88615 3.97324V4.50895C6.88615 4.55806 6.92633 4.59824 6.97544 4.59824H9.83258C9.88169 4.59824 9.92187 4.55806 9.92187 4.50895V3.97324C9.92187 3.92413 9.88169 3.88395 9.83258 3.88395ZM8.33705 5.40181H6.97544C6.92633 5.40181 6.88615 5.44199 6.88615 5.4911V6.02681C6.88615 6.07592 6.92633 6.1161 6.97544 6.1161H8.33705C8.38615 6.1161 8.42633 6.07592 8.42633 6.02681V5.4911C8.42633 5.44199 8.38615 5.40181 8.33705 5.40181ZM4.61271 2.88507H4.12946C4.06026 2.88507 4.00446 2.94087 4.00446 3.01007V5.77793C4.00446 5.81811 4.02343 5.85494 4.05579 5.87837L5.71763 7.09043C5.77343 7.13061 5.85155 7.11945 5.89173 7.06364L6.17856 6.6719V6.67079C6.21874 6.61498 6.20646 6.53686 6.15066 6.49668L4.7366 5.47436V3.01007C4.73771 2.94087 4.68079 2.88507 4.61271 2.88507Z" fill="#8F8F90"/>
<path d="M8.26784 6.80695H7.62275C7.56025 6.80695 7.5011 6.83931 7.46762 6.89288C7.32567 7.1179 7.15909 7.3264 6.97097 7.51454C6.64707 7.8395 6.26309 8.09839 5.84039 8.27681C5.40177 8.46208 4.93637 8.55583 4.45646 8.55583C3.97543 8.55583 3.51003 8.46208 3.07253 8.27681C2.64954 8.09824 2.26896 7.84154 1.94195 7.51454C1.61494 7.18753 1.35824 6.80695 1.17967 6.38396C0.994406 5.94646 0.900656 5.48105 0.900656 5.00003C0.900656 4.519 0.994406 4.05471 1.17967 3.6161C1.35824 3.19311 1.61494 2.81253 1.94195 2.48552C2.26896 2.15851 2.64954 1.90181 3.07253 1.72324C3.51003 1.53797 3.97655 1.44422 4.45646 1.44422C4.93749 1.44422 5.40289 1.53797 5.84039 1.72324C6.26338 1.90181 6.64396 2.15851 6.97097 2.48552C7.15909 2.67365 7.32567 2.88215 7.46762 3.10717C7.5011 3.16074 7.56025 3.19311 7.62275 3.19311H8.26784C8.34485 3.19311 8.39396 3.11275 8.35936 3.04467C7.63168 1.59712 6.15624 0.656277 4.50891 0.637303C2.09708 0.607169 0.0937358 2.5815 0.0892715 4.9911C0.0848073 7.40516 2.04128 9.36387 4.45534 9.36387C6.12387 9.36387 7.62387 8.41967 8.35936 6.95538C8.3672 6.93977 8.37092 6.9224 8.37016 6.90494C8.3694 6.88748 8.36419 6.87051 8.35502 6.85563C8.34584 6.84076 8.33302 6.82847 8.31776 6.81995C8.3025 6.81143 8.28532 6.80695 8.26784 6.80695Z" fill="#8F8F90"/>
</g>
<defs>
<clipPath id="clip0_10_137">
<rect width="10" height="10" fill="white"/>
</clipPath>
</defs>
</svg>
