<svg width="170" height="70" viewBox="0 0 170 70" fill="none" xmlns="http://www.w3.org/2000/svg">
<path d="M17.5254 10.2178C16.8247 7.89355 14.9619 6.4751 12.2617 6.45801C8.43359 6.4751 5.83594 9.39746 5.83594 14.5928C5.83594 19.8223 8.34814 22.7788 12.2959 22.7959C15.8335 22.7788 17.9355 20.7793 18.0039 17.6689H12.6377V13.8066H22.96V16.8828C22.96 23.377 18.4995 27.3418 12.2617 27.3418C5.32324 27.3418 0.606445 22.4883 0.606445 14.6611C0.606445 6.62891 5.63086 1.91211 12.1592 1.91211C17.7476 1.91211 22.0371 5.34717 22.7207 10.2178H17.5254ZM27.7793 27V8.44043H32.8379V27H27.7793ZM27.54 3.4502C27.54 2.01465 28.7876 0.869629 30.3086 0.852539C31.8125 0.869629 33.0601 2.01465 33.043 3.4502C33.0601 4.85156 31.8125 6.01367 30.3086 6.01367C28.7876 6.01367 27.54 4.85156 27.54 3.4502ZM53.9951 8.44043L47.4668 27H41.793L35.2988 8.44043H40.6309L44.5273 21.7705H44.7324L48.6289 8.44043H53.9951ZM64.249 27.376C58.5581 27.3589 55.0718 23.6846 55.0889 17.8057C55.0718 12.0806 58.6094 8.20117 64.0439 8.20117C68.9146 8.20117 72.7598 11.2773 72.7598 17.6006V19.0361H60.0791C60.0791 21.8389 61.7368 23.5649 64.3516 23.582C66.0776 23.5649 67.3081 22.813 67.8037 21.7021H72.623C71.9053 25.1372 68.8291 27.3589 64.249 27.376ZM60.0791 15.8574H67.9746C67.9575 13.6016 66.4023 11.978 64.1465 11.9951C61.8223 11.978 60.1816 13.7212 60.0791 15.8574ZM84.1074 2.25391H90.4648L97.335 19.0361H97.6084L104.479 2.25391H110.836V27H105.846V10.7988H105.641L99.1807 26.8975H95.7627L89.3027 10.7305H89.0977V27H84.1074V2.25391ZM113.502 2.25391H119.278L124.986 12.918H125.226L130.899 2.25391H136.676L127.652 18.1816V27H122.525V18.1816L113.502 2.25391ZM153.355 27V30.8623H137.12V27H153.355ZM169.317 27V30.8623H153.082V27H169.317ZM14.5176 51.3291C14.3125 49.3638 12.7573 48.2188 10.2451 48.2188C7.64746 48.2188 6.19482 49.415 6.17773 51.0557C6.16064 52.8501 8.00635 53.6533 10.1426 54.1318L12.3643 54.6787C16.6025 55.6528 19.7642 57.8062 19.7812 61.9248C19.7642 66.4536 16.2437 69.3589 10.2109 69.3418C4.22949 69.3589 0.418457 66.5903 0.264648 61.2754H5.25488C5.42578 63.7705 7.4082 65.0352 10.1426 65.0352C12.8428 65.0352 14.5859 63.7705 14.5859 61.9248C14.5859 60.2329 13.0479 59.4468 10.3477 58.7803L7.64746 58.1309C3.47754 57.1055 0.914062 55.0205 0.914062 51.3975C0.896973 46.9028 4.86182 43.9121 10.2793 43.9121C15.7651 43.9121 19.3711 46.9541 19.4395 51.3291H14.5176ZM31.4365 69.376C25.7456 69.3589 22.2593 65.6846 22.2764 59.8057C22.2593 54.0806 25.7969 50.2012 31.2314 50.2012C36.1021 50.2012 39.9473 53.2773 39.9473 59.6006V61.0361H27.2666C27.2666 63.8389 28.9243 65.5649 31.5391 65.582C33.2651 65.5649 34.4956 64.813 34.9912 63.7021H39.8105C39.0928 67.1372 36.0166 69.3589 31.4365 69.376ZM27.2666 57.8574H35.1621C35.145 55.6016 33.5898 53.978 31.334 53.9951C29.0098 53.978 27.3691 55.7212 27.2666 57.8574ZM42.2373 63.8047C42.2544 59.6689 45.5698 58.3188 49.1416 58.0967C50.4746 58.0112 52.9697 57.8916 53.7559 57.8574V56.3535C53.7388 54.7983 52.6792 53.9097 50.7822 53.8926C49.0562 53.9097 47.9795 54.6787 47.7061 55.9434H42.8867C43.1943 52.7305 45.9971 50.2012 50.9189 50.2012C54.9692 50.2012 58.7974 52.0127 58.7803 56.4902V69H53.9951V66.4365H53.8584C52.9526 68.1455 51.1753 69.3589 48.4238 69.3418C44.8691 69.3589 42.2544 67.479 42.2373 63.8047ZM47.0908 63.668C47.0908 65.0864 48.2358 65.8384 49.8594 65.8555C52.1665 65.8384 53.7729 64.3345 53.7559 62.3691V61.019C52.9868 61.0532 50.8164 61.1729 49.9619 61.2412C48.2017 61.395 47.0908 62.2324 47.0908 63.668ZM72.418 50.4404V54.2344H68.9316V63.292C68.9146 64.7788 69.6494 65.1377 70.6748 65.1719C71.1875 65.1719 72.0762 65.1206 72.6914 65.0693V69.0684C72.1445 69.1538 71.2388 69.2563 69.9912 69.2393C66.334 69.2563 63.8389 67.6157 63.873 64.0098V54.2344H61.3096V50.4404H63.873V45.9971H68.9316V50.4404H72.418Z" fill="#30A2FF"/>
</svg>
