<svg width="19" height="19" viewBox="0 0 19 19" fill="none" xmlns="http://www.w3.org/2000/svg">
<g id="HeartFilled">
<path id="Vector" d="M18.2154 4.65669C17.9312 3.99856 17.5213 3.40216 17.0088 2.90089C16.4959 2.39813 15.8912 1.99858 15.2276 1.72399C14.5394 1.43813 13.8013 1.29181 13.0561 1.29353C12.0107 1.29353 10.9907 1.5798 10.1044 2.12053C9.8923 2.24989 9.69085 2.39196 9.5 2.54676C9.30915 2.39196 9.1077 2.24989 8.89565 2.12053C8.00926 1.5798 6.98929 1.29353 5.94386 1.29353C5.19107 1.29353 4.46161 1.43772 3.77243 1.72399C3.10659 1.99966 2.50647 2.3962 1.99118 2.90089C1.47801 3.4016 1.06807 3.99813 0.784599 4.65669C0.489845 5.34163 0.339287 6.06897 0.339287 6.81752C0.339287 7.52366 0.483483 8.25948 0.769756 9.00803C1.00938 9.63359 1.3529 10.2825 1.79185 10.9377C2.48739 11.9747 3.44375 13.0561 4.63125 14.1525C6.59911 15.9698 8.54788 17.2251 8.63058 17.276L9.13315 17.5983C9.35581 17.7404 9.64208 17.7404 9.86473 17.5983L10.3673 17.276C10.45 17.223 12.3967 15.9698 14.3666 14.1525C15.5541 13.0561 16.5105 11.9747 17.206 10.9377C17.645 10.2825 17.9906 9.63359 18.2281 9.00803C18.5144 8.25948 18.6586 7.52366 18.6586 6.81752C18.6607 6.06897 18.5102 5.34163 18.2154 4.65669Z" fill="#E76161"/>
</g>
</svg>
