<svg width="17" height="15" viewBox="0 0 17 15" fill="none" xmlns="http://www.w3.org/2000/svg">
<path id="Vector" d="M16.5887 3.07395C16.3249 2.47242 15.9446 1.92731 15.469 1.46915C14.9931 1.00962 14.4319 0.644437 13.816 0.393462C13.1774 0.132183 12.4925 -0.001554 11.801 1.36231e-05C10.8309 1.36231e-05 9.88435 0.261667 9.0618 0.7559C8.86502 0.874128 8.67808 1.00399 8.50097 1.14547C8.32387 1.00399 8.13693 0.874128 7.94015 0.7559C7.1176 0.261667 6.17108 1.36231e-05 5.20094 1.36231e-05C4.50237 1.36231e-05 3.82544 0.131809 3.1859 0.393462C2.568 0.645424 2.01111 1.00786 1.53293 1.46915C1.05671 1.92679 0.676296 2.47203 0.413242 3.07395C0.139715 3.69998 0 4.36477 0 5.04895C0 5.69436 0.133812 6.3669 0.399467 7.05108C0.621831 7.62284 0.940617 8.21592 1.34796 8.81481C1.9934 9.76258 2.88089 10.751 3.98286 11.7531C5.809 13.4141 7.61742 14.5615 7.69417 14.608L8.16054 14.9026C8.36716 15.0325 8.63282 15.0325 8.83944 14.9026L9.30581 14.608C9.38256 14.5596 11.189 13.4141 13.0171 11.7531C14.1191 10.751 15.0066 9.76258 15.652 8.81481C16.0594 8.21592 16.3801 7.62284 16.6005 7.05108C16.8662 6.3669 17 5.69436 17 5.04895C17.0019 4.36477 16.8622 3.69998 16.5887 3.07395ZM8.50097 13.3695C8.50097 13.3695 1.49554 8.94855 1.49554 5.04895C1.49554 3.07395 3.15441 1.47302 5.20094 1.47302C6.63942 1.47302 7.88701 2.2638 8.50097 3.41895C9.11493 2.2638 10.3625 1.47302 11.801 1.47302C13.8475 1.47302 15.5064 3.07395 15.5064 5.04895C15.5064 8.94855 8.50097 13.3695 8.50097 13.3695Z" fill="#E76161"/>
</svg>
