<svg width="8" height="10" viewBox="0 0 8 10" fill="none" xmlns="http://www.w3.org/2000/svg">
<path d="M7.68387 2.49579C7.48144 2.00796 7.18957 1.56627 6.82473 1.19564C6.4587 0.821665 6.02719 0.524844 5.55376 0.321384C5.06129 0.107877 4.53871 0 4 0C3.46129 0 2.93871 0.107877 2.44624 0.320261C1.96989 0.525902 1.54301 0.820317 1.17527 1.19452C0.81067 1.56535 0.518834 2.00699 0.316129 2.49466C0.106452 3.00034 0 3.53748 0 4.09035C0 4.88369 0.18172 5.67367 0.53871 6.43555C0.825806 7.04798 1.22688 7.64468 1.73226 8.21216C2.5957 9.18081 3.50108 9.77301 3.75806 9.93145C3.83101 9.97647 3.91421 10.0002 3.99892 10C4.0828 10 4.16559 9.97752 4.23978 9.93145C4.49677 9.77301 5.40215 9.18081 6.26559 8.21216C6.77097 7.6458 7.17204 7.04798 7.45914 6.43555C7.81828 5.67479 8 4.88594 8 4.09147C8 3.5386 7.89355 3.00146 7.68387 2.49579ZM4 9.1381C3.2914 8.66726 0.774194 6.80301 0.774194 4.09147C0.774194 3.21609 1.1086 2.39353 1.71613 1.77323C2.32581 1.15181 3.13656 0.80908 4 0.80908C4.86344 0.80908 5.67419 1.15181 6.28387 1.77436C6.8914 2.39353 7.22581 3.21609 7.22581 4.09147C7.22581 6.80301 4.7086 8.66726 4 9.1381ZM4 2.20249C2.95484 2.20249 2.10753 3.08799 2.10753 4.18024C2.10753 5.2725 2.95484 6.15799 4 6.15799C5.04516 6.15799 5.89247 5.2725 5.89247 4.18024C5.89247 3.08799 5.04516 2.20249 4 2.20249ZM4.85161 5.07023C4.73992 5.1873 4.60717 5.28013 4.46102 5.34338C4.31487 5.40664 4.15819 5.43907 4 5.43881C3.67849 5.43881 3.37634 5.30734 3.14839 5.07023C3.03637 4.9535 2.94754 4.81478 2.88701 4.66204C2.82649 4.5093 2.79545 4.34556 2.7957 4.18024C2.7957 3.84425 2.92151 3.52849 3.14839 3.29026C3.37634 3.05203 3.67849 2.92168 4 2.92168C4.32151 2.92168 4.62366 3.05203 4.85161 3.29026C5.07957 3.52849 5.2043 3.84425 5.2043 4.18024C5.2043 4.51624 5.07957 4.832 4.85161 5.07023Z" fill="#8F8F90"/>
</svg>
